<svg xmlns="http://www.w3.org/2000/svg" viewBox="0 0 900 1200" width="900" height="1200" preserveAspectRatio="xMidYMid slice">
  <defs>
    <linearGradient id="bgV" x1="0" y1="0" x2="1" y2="1">
      <stop offset="0%" stop-color="#150f0c"/><stop offset="33.33333333333333%" stop-color="#4a382f"/><stop offset="66.66666666666666%" stop-color="#9a7c3f"/><stop offset="100%" stop-color="#1b1310"/>
    </linearGradient>
    <radialGradient id="glowV" cx="50%" cy="45%" r="65%">
      <stop offset="0%" stop-color="#e8c57a" stop-opacity="0.55"/>
      <stop offset="100%" stop-color="#e8c57a" stop-opacity="0"/>
    </radialGradient>
    <filter id="grainV">
      <feTurbulence type="fractalNoise" baseFrequency="0.85" numOctaves="3" stitchTiles="stitch"/>
      <feColorMatrix type="saturate" values="0"/>
      <feComponentTransfer><feFuncA type="linear" slope="0.055"/></feComponentTransfer>
      <feComposite operator="over" in2="SourceGraphic"/>
    </filter>
    <filter id="softV"><feGaussianBlur stdDeviation="8"/></filter>
  </defs>

  <rect width="900" height="1200" fill="url(#bgV)"/>
  <rect width="900" height="1200" fill="url(#glowV)"/>

  <g filter="url(#softV)"><path d="M -90 96.0 C 270 240.0, 558 600.0, 990.0000000000001 175.2" fill="none" stroke="#f0dfb6" stroke-width="3.00" opacity="0.100" stroke-linecap="round"/><path d="M -90 149.1 C 270 277.9, 558 634.7, 990.0000000000001 52.1" fill="none" stroke="#f0dfb6" stroke-width="4.28" opacity="0.191" stroke-linecap="round"/><path d="M -90 202.1 C 270 315.8, 558 669.5, 990.0000000000001 316.4" fill="none" stroke="#f0dfb6" stroke-width="5.53" opacity="0.279" stroke-linecap="round"/><path d="M -90 255.2 C 270 353.7, 558 704.2, 990.0000000000001 124.6" fill="none" stroke="#f0dfb6" stroke-width="6.71" opacity="0.362" stroke-linecap="round"/><path d="M -90 308.2 C 270 391.6, 558 738.9, 990.0000000000001 453.7" fill="none" stroke="#f0dfb6" stroke-width="7.79" opacity="0.438" stroke-linecap="round"/><path d="M -90 361.3 C 270 429.5, 558 773.7, 990.0000000000001 202.6" fill="none" stroke="#f0dfb6" stroke-width="8.74" opacity="0.505" stroke-linecap="round"/><path d="M -90 414.3 C 270 467.4, 558 808.4, 990.0000000000001 583.9" fill="none" stroke="#f0dfb6" stroke-width="9.53" opacity="0.560" stroke-linecap="round"/><path d="M -90 467.4 C 270 505.3, 558 843.2, 990.0000000000001 289.3" fill="none" stroke="#f0dfb6" stroke-width="10.14" opacity="0.604" stroke-linecap="round"/><path d="M -90 520.4 C 270 543.2, 558 877.9, 990.0000000000001 704.3" fill="none" stroke="#f0dfb6" stroke-width="10.56" opacity="0.633" stroke-linecap="round"/><path d="M -90 573.5 C 270 581.1, 558 912.6, 990.0000000000001 386.6" fill="none" stroke="#f0dfb6" stroke-width="10.77" opacity="0.648" stroke-linecap="round"/><path d="M -90 626.5 C 270 618.9, 558 947.4, 990.0000000000001 813.4" fill="none" stroke="#f0dfb6" stroke-width="10.77" opacity="0.648" stroke-linecap="round"/><path d="M -90 679.6 C 270 656.8, 558 982.1, 990.0000000000001 495.7" fill="none" stroke="#f0dfb6" stroke-width="10.56" opacity="0.633" stroke-linecap="round"/><path d="M -90 732.6 C 270 694.7, 558 1016.8, 990.0000000000001 910.7" fill="none" stroke="#f0dfb6" stroke-width="10.14" opacity="0.604" stroke-linecap="round"/><path d="M -90 785.7 C 270 732.6, 558 1051.6, 990.0000000000001 616.1" fill="none" stroke="#f0dfb6" stroke-width="9.53" opacity="0.560" stroke-linecap="round"/><path d="M -90 838.7 C 270 770.5, 558 1086.3, 990.0000000000001 997.4" fill="none" stroke="#f0dfb6" stroke-width="8.74" opacity="0.505" stroke-linecap="round"/><path d="M -90 891.8 C 270 808.4, 558 1121.1, 990.0000000000001 746.3" fill="none" stroke="#f0dfb6" stroke-width="7.79" opacity="0.438" stroke-linecap="round"/><path d="M -90 944.8 C 270 846.3, 558 1155.8, 990.0000000000001 1075.4" fill="none" stroke="#f0dfb6" stroke-width="6.71" opacity="0.362" stroke-linecap="round"/><path d="M -90 997.9 C 270 884.2, 558 1190.5, 990.0000000000001 883.6" fill="none" stroke="#f0dfb6" stroke-width="5.53" opacity="0.279" stroke-linecap="round"/><path d="M -90 1050.9 C 270 922.1, 558 1225.3, 990.0000000000001 1147.9" fill="none" stroke="#f0dfb6" stroke-width="4.28" opacity="0.191" stroke-linecap="round"/><path d="M -90 1104.0 C 270 960.0, 558 1260.0, 990.0000000000001 1024.8" fill="none" stroke="#f0dfb6" stroke-width="3.00" opacity="0.100" stroke-linecap="round"/></g>
  <g><path d="M -90 96.0 C 270 240.0, 558 600.0, 990.0000000000001 175.2" fill="none" stroke="#f0dfb6" stroke-width="3.00" opacity="0.100" stroke-linecap="round"/><path d="M -90 255.2 C 270 353.7, 558 704.2, 990.0000000000001 124.6" fill="none" stroke="#f0dfb6" stroke-width="6.71" opacity="0.362" stroke-linecap="round"/><path d="M -90 414.3 C 270 467.4, 558 808.4, 990.0000000000001 583.9" fill="none" stroke="#f0dfb6" stroke-width="9.53" opacity="0.560" stroke-linecap="round"/><path d="M -90 573.5 C 270 581.1, 558 912.6, 990.0000000000001 386.6" fill="none" stroke="#f0dfb6" stroke-width="10.77" opacity="0.648" stroke-linecap="round"/><path d="M -90 732.6 C 270 694.7, 558 1016.8, 990.0000000000001 910.7" fill="none" stroke="#f0dfb6" stroke-width="10.14" opacity="0.604" stroke-linecap="round"/><path d="M -90 891.8 C 270 808.4, 558 1121.1, 990.0000000000001 746.3" fill="none" stroke="#f0dfb6" stroke-width="7.79" opacity="0.438" stroke-linecap="round"/><path d="M -90 1050.9 C 270 922.1, 558 1225.3, 990.0000000000001 1147.9" fill="none" stroke="#f0dfb6" stroke-width="4.28" opacity="0.191" stroke-linecap="round"/></g>

  <rect width="900" height="1200" filter="url(#grainV)" opacity="0.5" style="mix-blend-mode:overlay"/>
</svg>